# xmcd
#
# Track frame offsets:
#	182
#	12440
#	27495
#	41537
#	57185
#	74562
#	88805
#	103755
#	121210
#	133157
#	147265
#	165292
#	180367
#	197810
#	214602
#
# Disc length: 3070 seconds
#
# Revision: 0
# Processed by: cddbd v1.4PL0 Copyright (c) Steve Scherf et al.
# Submitted via: EasyCDDAExtractor 4.5.0.2
#
DISCID=d50bfc0f
DTITLE=Lee Benoit - Live At Vermilioville
DYEAR=1998
DGENRE=Cajun
TTITLE0=The Lacassine Special
TTITLE1=Just A Dream
TTITLE2=Madeline
TTITLE3=The Back Door
TTITLE4=Another Lonely Night
TTITLE5=Madame Sosthene
TTITLE6=Johnnie Can't Dance
TTITLE7=Mom, I'm Still Your Little Boy
TTITLE8=Chere mom
TTITLE9=Think Of Me
TTITLE10=Lovers' Waltz
TTITLE11=Step It Fast
TTITLE12=The Dance Of The Ducks
TTITLE13=The Bosco Stomp
TTITLE14=The Visit
EXTD=
EXTT0=
EXTT1=
EXTT2=
EXTT3=
EXTT4=
EXTT5=
EXTT6=
EXTT7=
EXTT8=
EXTT9=
EXTT10=
EXTT11=
EXTT12=
EXTT13=
EXTT14=
PLAYORDER=
